<svg width="389" height="400" viewBox="0 0 389 400" fill="none" xmlns="http://www.w3.org/2000/svg">
<g clip-path="url(#clip0_1264_3451)">
<rect width="389" height="400" rx="20" fill="#21263A"/>
<g filter="url(#filter0_f_1264_3451)">
<ellipse cx="191.655" cy="205.296" rx="191.655" ry="205.296" transform="matrix(-0.752781 -0.658271 -0.498027 0.867162 682.134 179.823)" fill="url(#paint0_linear_1264_3451)" fill-opacity="0.6"/>
</g>
<g filter="url(#filter1_f_1264_3451)">
<ellipse cx="191.655" cy="205.296" rx="191.655" ry="205.296" transform="matrix(-0.752781 -0.658271 -0.498027 0.867162 157.389 382.323)" fill="url(#paint1_linear_1264_3451)" fill-opacity="0.6"/>
</g>
<path d="M806.049 -123.539H820.297V-124.21H804.926L798.344 -112.346L791.75 -100.482H765.409L752.233 -124.21H723.647L714.019 -106.87L710.47 -100.482H684.117L670.953 -124.21H642.367L629.191 -100.482H602.837L589.661 -124.21H561.075L547.911 -100.482H521.558L508.381 -124.21H479.795L470.168 -106.87L466.619 -100.482H440.278L427.102 -124.21H398.516L385.339 -100.482H358.999L345.822 -124.21H317.236L310.642 -112.346L304.06 -100.482H277.706L264.543 -124.21H235.957L232.395 -117.822L222.78 -100.482H196.427L183.25 -124.21H154.664L141.488 -100.482H115.147L101.971 -124.21H73.3849L66.803 -112.346L60.2082 -100.482H45.9604V-99.1399H60.2082L66.803 -87.2757L73.3849 -75.4115L66.803 -63.5473L60.2082 -51.6697H45.9604V-50.3276H60.2082L66.803 -38.4633L73.3849 -26.5991L66.803 -14.7349L60.2082 -2.87071H45.9604V-1.52861H60.2082L66.803 10.3356L73.3849 22.1998L66.803 34.064L60.2082 45.9282H45.9604V47.2703H60.2082L66.803 59.1345L73.3849 70.9988L66.803 82.8764L60.2082 94.7406H45.9604V96.0827H60.2082L66.803 107.947L73.3849 119.811L66.803 131.675L60.2082 143.54H45.9604V144.882H60.2082L66.803 156.746L73.3849 168.61L66.803 180.474L60.2082 192.339H45.9604V193.681H60.2082L66.803 205.545L73.3849 217.422L66.803 229.287L60.2082 241.151H45.9604V242.493H60.2082L66.803 254.357L73.3849 266.221L66.803 278.086L60.2082 289.95H45.9604V291.292H60.2082L66.803 303.156L73.3849 315.02L66.803 326.884L60.2082 338.749H45.9604V340.091H60.2082L66.803 351.968L73.3849 363.833L66.803 375.697L60.2082 387.561H45.9604V388.903H60.2082L66.803 400.767L73.3849 412.632H101.971L115.147 388.903H141.488L150.276 404.727L154.664 412.632H183.25L196.427 388.903H222.78L232.395 406.243L235.957 412.632H264.543L277.706 388.903H304.06L310.642 400.767L317.236 412.632H345.822L358.999 388.903H385.339L394.128 404.727L398.516 412.632H427.102L440.278 388.903H466.619L470.168 395.292L479.795 412.632H508.381L521.558 388.903H547.911L561.075 412.632H589.661L602.837 388.903H629.191L637.966 404.727L642.367 412.632H670.953L684.117 388.903H710.47L714.019 395.292L723.647 412.632H752.233L765.409 388.903H791.75L798.344 400.767L804.926 412.632H820.297V411.961H806.049L799.454 400.096L792.872 388.232L799.454 376.368L806.049 364.504H820.297V363.162H806.049L799.454 351.297L792.872 339.42L799.454 327.556L806.049 315.691H820.297V314.349H806.049L799.454 302.485L792.872 290.621L799.454 278.757L806.049 266.892H820.297V265.55H806.049L799.454 253.686L792.872 241.822L799.454 229.958L806.049 218.093H820.297V216.751H806.049L799.454 204.874L792.872 193.01L799.454 181.145L806.049 169.281H820.297V167.939H806.049L799.454 156.075L792.872 144.211L799.454 132.346L806.049 120.482H820.297V119.14H806.049L799.454 107.276L792.872 95.4117L799.454 83.5474L806.049 71.6698H820.297V70.3277H806.049L799.454 58.4635L792.872 46.5993L799.454 34.7351L806.049 22.8709H820.297V21.5287H806.049L799.454 9.66455L792.872 -2.19965L799.454 -14.0639L806.049 -25.9281H820.297V-27.2702H806.049L799.454 -39.1344L792.872 -50.9986L799.454 -62.8762L806.049 -74.7405H820.297V-76.0826H806.049L799.454 -87.9468L792.872 -99.811L799.454 -111.675L806.049 -123.539ZM724.77 -123.539H751.11L764.286 -99.811L751.11 -76.0826H724.77L711.593 -99.811L724.77 -123.539ZM562.198 119.14L549.021 95.4117L562.198 71.6698H588.551L601.728 95.4117L588.551 119.14H562.198ZM601.728 144.211L588.551 167.939H562.198L549.021 144.211L562.198 120.482H588.551L601.728 144.211ZM561.075 119.811L547.911 143.54H521.558L508.381 119.811L521.558 96.0827H547.911L561.075 119.811ZM520.435 144.211L507.258 167.939H480.918L472.129 152.116L467.742 144.211L480.918 120.482H507.258L520.435 144.211ZM507.258 119.14H480.918L467.742 95.4117L480.918 71.6698H507.258L520.435 95.4117L507.258 119.14ZM470.155 102.431L479.795 119.811L470.168 137.151L466.619 143.54H440.278L427.102 119.811L440.278 96.0827H466.619L470.155 102.431ZM439.156 144.211L425.979 167.939H399.639L396.09 161.551L386.462 144.211L396.09 126.871L399.639 120.482H425.979L439.156 144.211ZM425.979 119.14H399.639L396.102 112.778L386.462 95.4117L396.09 78.0716L399.639 71.6698H425.979L439.156 95.4117L425.979 119.14ZM398.516 119.811L385.339 143.54H358.999L345.822 119.811L358.999 96.0827H385.339L398.516 119.811ZM357.876 144.211L344.699 167.939H318.346L311.764 156.075L305.182 144.211L311.764 132.346L318.346 120.482H344.699L357.876 144.211ZM344.699 119.14H318.346L311.764 107.276L305.182 95.4117L311.764 83.5474L318.346 71.6698H344.699L357.876 95.4117L344.699 119.14ZM310.642 107.947L317.236 119.811L310.642 131.675L304.06 143.54H277.706L264.543 119.811L277.706 96.0827H304.06L310.642 107.947ZM263.42 119.14H237.067L223.89 95.4117L237.067 71.6698H263.42L276.597 95.4117L263.42 119.14ZM263.42 120.482L276.597 144.211L263.42 167.939H237.067L223.89 144.211L237.067 120.482H263.42ZM263.42 169.281L276.597 193.01L263.42 216.751H237.067L223.89 193.01L237.067 169.281H263.42ZM264.543 168.61L277.706 144.882H304.06L310.642 156.746L317.236 168.61L310.642 180.474L304.06 192.339H277.706L264.543 168.61ZM311.764 181.145L318.346 169.281H344.699L357.876 193.01L344.699 216.751H318.346L311.764 204.874L305.182 193.01L311.764 181.145ZM345.822 168.61L358.999 144.882H385.339L394.128 160.705L398.516 168.61L385.339 192.339H358.999L345.822 168.61ZM396.09 175.683L399.639 169.281H425.979L439.156 193.01L425.979 216.751H399.639L396.128 210.43L386.462 193.01L396.09 175.683ZM427.102 168.61L440.278 144.882H466.619L470.168 151.27L479.795 168.61L470.168 185.95L466.619 192.339H440.278L427.102 168.61ZM480.918 169.281H507.258L520.435 193.01L507.258 216.751H480.918L467.742 193.01L480.918 169.281ZM508.381 168.61L521.558 144.882H547.911L561.075 168.61L547.911 192.339H521.558L508.381 168.61ZM562.198 169.281H588.551L601.728 193.01L588.551 216.751H562.198L549.021 193.01L562.198 169.281ZM589.661 168.61L602.837 144.882H629.191L637.966 160.705L642.367 168.61L629.191 192.339H602.837L589.661 168.61ZM602.837 143.54L589.661 119.811L602.837 96.0827H629.191L642.367 119.811L629.191 143.54H602.837ZM602.837 94.7406L589.661 71.0122L602.837 47.2703H629.191L637.966 63.0938L642.367 70.9988L629.191 94.7406H602.837ZM588.551 70.3277H562.198L549.021 46.5993L562.198 22.8709H588.551L601.728 46.5993L588.551 70.3277ZM561.075 70.9988L547.911 94.7406H521.558L508.381 70.9988L521.558 47.2703H547.911L561.075 70.9988ZM507.258 70.3277H480.918L472.129 54.5177L467.742 46.5993L480.918 22.8709H507.258L520.435 46.5993L507.258 70.3277ZM470.168 53.6722L479.795 70.9988L470.168 88.3387L466.619 94.7406H440.278L427.102 70.9988L440.278 47.2703H466.619L470.168 53.6722ZM425.979 70.3277H399.639L396.09 63.9393L386.462 46.5993L396.102 29.2324L399.639 22.8709H425.979L439.156 46.5993L425.979 70.3277ZM394.128 63.0938L398.516 70.9988L385.339 94.7406H358.999L345.822 71.0122L358.999 47.2703H385.339L394.128 63.0938ZM344.699 70.3277H318.346L311.764 58.4635L305.182 46.5993L311.764 34.7351L318.346 22.8709H344.699L357.876 46.5993L344.699 70.3277ZM310.642 59.1345L317.236 70.9988L310.642 82.8764L304.06 94.7406H277.706L264.543 70.9988L277.706 47.2703H304.06L310.642 59.1345ZM263.42 70.3277H237.067L223.89 46.5993L237.067 22.8709H263.42L276.597 46.5993L263.42 70.3277ZM232.395 64.6103L235.957 70.9988L232.395 77.4006L222.78 94.7406H196.427L183.25 70.9988L196.427 47.2703H222.78L232.395 64.6103ZM222.78 96.0827L232.421 113.45L235.957 119.811L232.395 126.2L222.78 143.54H196.427L183.25 119.811L196.427 96.0827H222.78ZM222.78 144.882L232.395 162.222L235.957 168.61L232.395 175.012L222.78 192.339H196.427L183.25 168.61L196.427 144.882H222.78ZM222.78 193.681L232.446 211.101L235.957 217.422L232.395 223.811L222.78 241.151H196.427L183.25 217.422L196.427 193.681H222.78ZM237.067 218.093H263.42L276.597 241.822L263.42 265.55H237.067L223.89 241.822L237.067 218.093ZM264.543 217.422L277.706 193.681H304.06L310.642 205.545L317.236 217.422L310.642 229.287L304.06 241.151H277.706L264.543 217.422ZM311.764 229.958L318.346 218.093H344.699L357.876 241.822L344.699 265.55H318.346L311.764 253.686L305.182 241.822L311.764 229.958ZM345.822 217.422L358.999 193.681H385.339L398.516 217.422L385.339 241.151H358.999L345.822 217.422ZM396.09 224.482L399.639 218.093H425.979L439.156 241.822L425.979 265.55H399.639L396.09 259.162L386.462 241.822L396.09 224.482ZM427.102 217.422L440.278 193.681H466.619L470.129 200.002L479.795 217.422L470.168 234.749L466.619 241.151H440.278L427.102 217.422ZM480.918 218.093H507.258L520.435 241.822L507.258 265.55H480.918L472.129 249.727L467.742 241.822L480.918 218.093ZM508.381 217.422L521.558 193.681H547.911L561.075 217.422L547.911 241.151H521.558L508.381 217.422ZM562.198 218.093H588.551L601.728 241.822L588.551 265.55H562.198L549.021 241.822L562.198 218.093ZM589.661 217.422L602.837 193.681H629.191L642.367 217.422L629.191 241.151H602.837L589.661 217.422ZM639.928 224.482L643.477 218.093H669.83L683.007 241.822L669.83 265.55H643.477L639.928 259.162L630.313 241.822L639.928 224.482ZM643.477 216.751L639.98 210.43L630.313 193.01L639.928 175.683L643.477 169.281H669.83L683.007 193.01L669.83 216.751H643.477ZM643.477 167.939L639.928 161.551L630.313 144.211L639.928 126.871L643.477 120.482H669.83L683.007 144.211L669.83 167.939H643.477ZM643.477 119.14L639.954 112.778L630.313 95.4117L639.928 78.0716L643.477 71.6698H669.83L683.007 95.4117L669.83 119.14H643.477ZM643.477 70.3277L639.928 63.9393L630.313 46.5993L639.954 29.2324L643.477 22.8709H669.83L683.007 46.5993L669.83 70.3277H643.477ZM643.477 21.5287L639.928 15.1403L630.313 -2.19965L639.954 -19.5799L643.477 -25.9281H669.83L683.007 -2.19965L669.83 21.5287H643.477ZM637.966 14.2948L642.367 22.1998L629.191 45.9282H602.837L589.661 22.1998L602.837 -1.52861H629.191L637.966 14.2948ZM588.551 21.5287H562.198L549.021 -2.19965L562.198 -25.9281H588.551L601.728 -2.19965L588.551 21.5287ZM561.075 22.1998L547.911 45.9282H521.558L508.381 22.1998L521.558 -1.52861H547.911L561.075 22.1998ZM507.258 21.5287H480.918L472.129 5.70534L467.742 -2.19965L480.918 -25.9281H507.258L520.435 -2.19965L507.258 21.5287ZM470.168 4.85982L479.795 22.1998L470.155 39.5801L466.619 45.9282H440.278L427.102 22.1998L440.278 -1.52861H466.619L470.168 4.85982ZM425.979 21.5287H399.639L396.09 15.1403L386.462 -2.19965L396.102 -19.5799L399.639 -25.9281H425.979L439.156 -2.19965L425.979 21.5287ZM394.128 14.2948L398.516 22.1998L385.339 45.9282H358.999L345.822 22.1998L358.999 -1.52861H385.339L394.128 14.2948ZM344.699 21.5287H318.346L311.764 9.66455L305.182 -2.19965L311.764 -14.0639L318.346 -25.9281H344.699L357.876 -2.19965L344.699 21.5287ZM310.642 10.3356L317.236 22.1998L310.642 34.064L304.06 45.9282H277.706L264.543 22.1998L277.706 -1.52861H304.06L310.642 10.3356ZM263.42 21.5287H237.067L223.89 -2.19965L237.067 -25.9281H263.42L276.597 -2.19965L263.42 21.5287ZM232.395 15.8114L235.957 22.1998L232.421 28.5614L222.78 45.9282H196.427L183.25 22.1998L196.427 -1.52861H222.78L232.395 15.8114ZM182.14 21.5287H155.787L152.238 15.1403L142.611 -2.19965L152.264 -19.5799L155.787 -25.9281H182.14L195.304 -2.19965L182.14 21.5287ZM182.14 22.8709L195.304 46.5993L182.14 70.3277H155.787L152.238 63.9393L142.611 46.5993L152.264 29.2324L155.787 22.8709H182.14ZM182.14 71.6698L195.304 95.4117L182.14 119.14H155.787L152.264 112.778L142.611 95.4117L152.238 78.0716L155.787 71.6698H182.14ZM182.14 120.482L195.304 144.211L182.14 167.939H155.787L152.238 161.551L142.611 144.211L152.238 126.871L155.787 120.482H182.14ZM182.14 169.281L195.304 193.01L182.14 216.751H155.787L152.277 210.43L142.611 193.01L152.238 175.683L155.787 169.281H182.14ZM182.14 218.093L195.304 241.822L182.14 265.55H155.787L152.238 259.162L142.611 241.822L152.238 224.482L155.787 218.093H182.14ZM182.14 266.892L195.304 290.621L182.14 314.349H155.787L152.238 307.961L142.611 290.621L152.238 273.281L155.787 266.892H182.14ZM183.25 266.221L196.427 242.493H222.78L232.395 259.833L235.957 266.221L232.395 272.61L222.78 289.95H196.427L183.25 266.221ZM237.067 266.892H263.42L276.597 290.621L263.42 314.349H237.067L223.89 290.621L237.067 266.892ZM264.543 266.221L277.706 242.493H304.06L310.642 254.357L317.236 266.221L310.642 278.086L304.06 289.95H277.706L264.543 266.221ZM311.764 278.757L318.346 266.892H344.699L357.876 290.621L344.699 314.349H318.346L311.764 302.485L305.182 290.621L311.764 278.757ZM345.822 266.221L358.999 242.493H385.339L394.128 258.316L398.516 266.221L385.339 289.95H358.999L345.822 266.221ZM396.09 273.281L399.639 266.892H425.979L439.156 290.621L425.979 314.349H399.639L396.09 307.961L386.462 290.621L396.09 273.281ZM427.102 266.221L440.278 242.493H466.619L470.168 248.881L479.795 266.221L470.168 283.561L466.619 289.95H440.278L427.102 266.221ZM480.918 266.892H507.258L520.435 290.621L507.258 314.349H480.918L472.129 298.526L467.742 290.621L480.918 266.892ZM508.381 266.221L521.558 242.493H547.911L561.075 266.221L547.911 289.95H521.558L508.381 266.221ZM562.198 266.892H588.551L601.728 290.621L588.551 314.349H562.198L549.021 290.621L562.198 266.892ZM589.661 266.221L602.837 242.493H629.191L637.966 258.316L642.367 266.221L629.191 289.95H602.837L589.661 266.221ZM639.928 273.281L643.477 266.892H669.83L683.007 290.621L669.83 314.349H643.477L639.928 307.961L630.313 290.621L639.928 273.281ZM670.953 266.221L684.117 242.493H710.47L714.019 248.881L723.647 266.221L714.019 283.561L710.47 289.95H684.117L670.953 266.221ZM684.117 241.151L670.953 217.422L684.117 193.681H710.47L713.98 200.002L723.647 217.422L714.019 234.749L710.47 241.151H684.117ZM684.117 192.339L670.953 168.61L684.117 144.882H710.47L714.019 151.27L723.647 168.61L714.019 185.95L710.47 192.339H684.117ZM684.117 143.54L670.953 119.811L684.117 96.0827H710.47L713.993 102.431L723.647 119.811L714.019 137.151L710.47 143.54H684.117ZM684.117 94.7406L670.953 70.9988L684.117 47.2703H710.47L714.019 53.6722L723.647 70.9988L714.019 88.3387L710.47 94.7406H684.117ZM684.117 45.9282L670.953 22.1998L684.117 -1.52861H710.47L714.019 4.85982L723.647 22.1998L713.993 39.5801L710.47 45.9282H684.117ZM684.117 -2.87071L670.953 -26.5991L684.117 -50.3276H710.47L714.019 -43.9391L723.647 -26.5991L713.993 -9.2323L710.47 -2.87071H684.117ZM669.83 -27.2702H643.477L639.928 -33.672L630.313 -50.9986L639.928 -68.3386L643.477 -74.7405H669.83L683.007 -50.9986L669.83 -27.2702ZM637.966 -34.5176L642.367 -26.5991L629.191 -2.87071H602.837L589.661 -26.5991L602.837 -50.3276H629.191L637.966 -34.5176ZM588.551 -27.2702H562.198L549.021 -50.9986L562.198 -74.7405H588.551L601.728 -50.9986L588.551 -27.2702ZM561.075 -26.5991L547.911 -2.87071H521.558L508.381 -26.5991L521.558 -50.3276H547.911L561.075 -26.5991ZM507.258 -27.2702H480.918L472.129 -43.0936L467.742 -50.9986L480.918 -74.7405H507.258L520.435 -51.012L507.258 -27.2702ZM470.168 -43.9391L479.795 -26.5991L470.155 -9.2323L466.619 -2.87071H440.278L427.102 -26.5991L440.278 -50.3276H466.619L470.168 -43.9391ZM425.979 -27.2702H399.639L396.09 -33.672L386.462 -50.9986L396.09 -68.3386L399.639 -74.7405H425.979L439.156 -50.9986L425.979 -27.2702ZM394.128 -34.5176L398.516 -26.5991L385.339 -2.87071H358.999L345.822 -26.5991L358.999 -50.3276H385.339L394.128 -34.5176ZM344.699 -27.2702H318.346L311.764 -39.1344L305.182 -50.9986L311.764 -62.8762L318.346 -74.7405H344.699L357.876 -50.9986L344.699 -27.2702ZM310.642 -38.4633L317.236 -26.5991L310.642 -14.7349L304.06 -2.87071H277.706L264.543 -26.5991L277.706 -50.3276H304.06L310.642 -38.4633ZM263.42 -27.2702H237.067L223.89 -50.9986L237.067 -74.7405H263.42L276.597 -50.9986L263.42 -27.2702ZM232.395 -33.001L235.957 -26.5991L232.421 -20.251L222.78 -2.87071H196.427L183.25 -26.5991L196.427 -50.3276H222.78L232.395 -33.001ZM182.14 -27.2702H155.787L152.238 -33.672L142.611 -50.9986L152.238 -68.3386L155.787 -74.7405H182.14L195.304 -50.9986L182.14 -27.2702ZM150.276 -34.5176L154.664 -26.5991L141.488 -2.87071H115.147L101.971 -26.5991L115.147 -50.3276H141.488L150.276 -34.5176ZM141.488 -1.52861L150.276 14.2948L154.664 22.1998L141.488 45.9282H115.147L101.971 22.1998L115.147 -1.52861H141.488ZM141.488 47.2703L150.276 63.0938L154.664 70.9988L141.488 94.7406H115.147L101.971 70.9988L115.147 47.2703H141.488ZM141.488 96.0827L154.664 119.811L141.488 143.54H115.147L101.971 119.811L115.147 96.0827H141.488ZM141.488 144.882L150.276 160.705L154.664 168.61L141.488 192.339H115.147L101.971 168.61L115.147 144.882H141.488ZM141.488 193.681L154.664 217.422L141.488 241.151H115.147L101.971 217.422L115.147 193.681H141.488ZM141.488 242.493L150.276 258.316L154.664 266.221L141.488 289.95H115.147L101.971 266.221L115.147 242.493H141.488ZM141.488 291.292L150.276 307.115L154.664 315.02L141.488 338.749H115.147L101.971 315.02L115.147 291.292H141.488ZM152.238 322.093L155.787 315.691H182.14L195.304 339.42L182.14 363.162H155.787L152.277 356.84L142.611 339.42L152.238 322.093ZM183.25 315.02L196.427 291.292H222.78L232.395 308.632L235.957 315.02L232.395 321.422L222.78 338.749H196.427L183.25 315.02ZM237.067 315.691H263.42L276.597 339.42L263.42 363.162H237.067L223.89 339.42L237.067 315.691ZM264.543 315.02L277.706 291.292H304.06L310.642 303.156L317.236 315.02L310.642 326.884L304.06 338.749H277.706L264.543 315.02ZM311.764 327.556L318.346 315.691H344.699L357.876 339.42L344.699 363.162H318.346L311.764 351.297L305.182 339.42L311.764 327.556ZM345.822 315.02L358.999 291.292H385.339L394.128 307.115L398.516 315.02L385.339 338.749H358.999L345.822 315.02ZM396.09 322.093L399.639 315.691H425.979L439.156 339.42L425.979 363.162H399.639L396.128 356.84L386.462 339.42L396.09 322.093ZM427.102 315.02L440.278 291.292H466.619L470.168 297.68L479.795 315.02L470.168 332.36L466.619 338.749H440.278L427.102 315.02ZM480.918 315.691H507.258L520.435 339.42L507.258 363.162H480.918L467.742 339.42L480.918 315.691ZM508.381 315.02L521.558 291.292H547.911L561.075 315.02L547.911 338.749H521.558L508.381 315.02ZM562.198 315.691H588.551L601.728 339.42L588.551 363.162H562.198L549.021 339.42L562.198 315.691ZM589.661 315.02L602.837 291.292H629.191L637.966 307.115L642.367 315.02L629.191 338.749H602.837L589.661 315.02ZM639.928 322.093L643.477 315.691H669.83L683.007 339.42L669.83 363.162H643.477L639.98 356.84L630.313 339.42L639.928 322.093ZM670.953 315.02L684.117 291.292H710.47L714.019 297.68L723.647 315.02L714.019 332.36L710.47 338.749H684.117L670.953 315.02ZM724.77 315.691H751.11L764.286 339.42L751.11 363.162H724.77L711.593 339.42L724.77 315.691ZM724.77 314.349L715.981 298.526L711.593 290.621L724.77 266.892H751.11L764.286 290.621L751.11 314.349H724.77ZM724.77 265.55L715.981 249.727L711.593 241.822L724.77 218.093H751.11L764.286 241.822L751.11 265.55H724.77ZM724.77 216.751L711.593 193.01L724.77 169.281H751.11L764.286 193.01L751.11 216.751H724.77ZM724.77 167.939L715.981 152.116L711.593 144.211L724.77 120.482H751.11L764.286 144.211L751.11 167.939H724.77ZM724.77 119.14L711.593 95.4117L724.77 71.6698H751.11L764.286 95.4117L751.11 119.14H724.77ZM724.77 70.3277L715.981 54.5177L711.593 46.5993L724.77 22.8709H751.11L764.286 46.5993L751.11 70.3277H724.77ZM724.77 21.5287L715.981 5.70534L711.593 -2.19965L724.77 -25.9281H751.11L764.286 -2.19965L751.11 21.5287H724.77ZM724.77 -27.2702L715.981 -43.0936L711.593 -50.9986L724.77 -74.7405H751.11L764.286 -50.9986L751.11 -27.2702H724.77ZM710.47 -99.1399L713.993 -92.7783L723.647 -75.4115L714.019 -58.0715L710.47 -51.6697H684.117L670.953 -75.4115L684.117 -99.1399H710.47ZM639.928 -117.151L643.477 -123.539H669.83L683.007 -99.811L669.83 -76.0826H643.477L639.954 -82.4307L630.313 -99.811L639.928 -117.151ZM629.191 -99.1399L642.367 -75.4115L629.191 -51.6697H602.837L589.661 -75.4115L602.837 -99.1399H629.191ZM562.198 -123.539H588.551L601.728 -99.811L588.551 -76.0826H562.198L549.021 -99.811L562.198 -123.539ZM547.911 -99.1399L561.075 -75.4115L547.911 -51.6697H521.558L508.381 -75.4115L521.558 -99.1399H547.911ZM480.918 -123.539H507.258L520.435 -99.811L507.258 -76.0826H480.918L467.742 -99.811L480.918 -123.539ZM466.619 -99.1399L470.155 -92.7783L479.795 -75.4115L470.168 -58.0715L466.619 -51.6697H440.278L427.102 -75.4115L440.278 -99.1399H466.619ZM396.09 -117.151L399.639 -123.539H425.979L439.156 -99.811L425.979 -76.0826H399.639L396.102 -82.4307L386.462 -99.811L396.09 -117.151ZM385.339 -99.1399L398.516 -75.4115L385.339 -51.6697H358.999L345.822 -75.4115L358.999 -99.1399H385.339ZM311.764 -111.675L318.346 -123.539H344.699L357.876 -99.811L344.699 -76.0826H318.346L311.764 -87.9468L305.182 -99.811L311.764 -111.675ZM304.06 -99.1399L310.642 -87.2757L317.236 -75.4115L310.642 -63.5473L304.06 -51.6697H277.706L264.543 -75.4115L277.706 -99.1399H304.06ZM237.067 -123.539H263.42L276.597 -99.811L263.42 -76.0826H237.067L223.89 -99.811L237.067 -123.539ZM222.78 -99.1399L232.421 -81.7597L235.957 -75.4115L232.395 -69.0097L222.78 -51.6697H196.427L183.25 -75.4115L196.427 -99.1399H222.78ZM152.238 -117.151L155.787 -123.539H182.14L195.304 -99.811L182.14 -76.0826H155.787L152.264 -82.4307L142.611 -99.811L152.238 -117.151ZM141.488 -99.1399L154.664 -75.4115L141.488 -51.6697H115.147L101.971 -75.4115L115.147 -99.1399H141.488ZM67.9129 -87.9468L61.331 -99.811L67.9129 -111.675L74.5077 -123.539H100.848L114.025 -99.811L100.848 -76.0826H74.5077L67.9129 -87.9468ZM67.9129 -39.1344L61.331 -50.9986L67.9129 -62.8762L74.5077 -74.7405H100.848L114.025 -50.9986L100.848 -27.2702H74.5077L67.9129 -39.1344ZM67.9129 9.66455L61.331 -2.19965L67.9129 -14.0639L74.5077 -25.9281H100.848L114.025 -2.19965L100.848 21.5287H74.5077L67.9129 9.66455ZM67.9129 58.4635L61.331 46.5993L67.9129 34.7351L74.5077 22.8709H100.848L114.025 46.5993L100.848 70.3277H74.5077L67.9129 58.4635ZM67.9129 107.276L61.331 95.4117L67.9129 83.5474L74.5077 71.6698H100.848L114.025 95.4117L100.848 119.14H74.5077L67.9129 107.276ZM67.9129 156.075L61.331 144.211L67.9129 132.346L74.5077 120.482H100.848L114.025 144.211L100.848 167.939H74.5077L67.9129 156.075ZM67.9129 204.874L61.331 193.01L67.9129 181.145L74.5077 169.281H100.848L114.025 193.01L100.848 216.751H74.5077L67.9129 204.874ZM67.9129 253.686L61.331 241.822L67.9129 229.958L74.5077 218.093H100.848L114.025 241.822L100.848 265.55H74.5077L67.9129 253.686ZM67.9129 302.485L61.331 290.621L67.9129 278.757L74.5077 266.892H100.848L114.025 290.621L100.848 314.349H74.5077L67.9129 302.485ZM67.9129 351.297L61.331 339.42L67.9129 327.556L74.5077 315.691H100.848L114.025 339.42L100.848 363.162H74.5077L67.9129 351.297ZM100.848 411.961H74.5077L67.9129 400.096L61.331 388.232L67.9129 376.368L74.5077 364.504H100.848L114.025 388.232L100.848 411.961ZM115.147 387.561L101.971 363.833L115.147 340.091H141.488L154.664 363.833L141.488 387.561H115.147ZM182.14 411.961H155.787L152.238 405.572L142.611 388.232L152.238 370.892L155.787 364.504H182.14L195.304 388.232L182.14 411.961ZM196.427 387.561L183.25 363.833L196.427 340.091H222.78L232.446 357.511L235.957 363.833L232.395 370.221L222.78 387.561H196.427ZM263.42 411.961H237.067L223.89 388.232L237.067 364.504H263.42L276.597 388.232L263.42 411.961ZM277.706 387.561L264.543 363.833L277.706 340.091H304.06L310.642 351.968L317.236 363.833L310.642 375.697L304.06 387.561H277.706ZM344.699 411.961H318.346L311.764 400.096L305.182 388.232L311.764 376.368L318.346 364.504H344.699L357.876 388.232L344.699 411.961ZM358.999 387.561L345.822 363.833L358.999 340.091H385.339L398.516 363.833L385.339 387.561H358.999ZM425.979 411.961H399.639L396.09 405.572L386.462 388.232L396.09 370.892L399.639 364.504H425.979L439.156 388.232L425.979 411.961ZM440.278 387.561L427.102 363.833L440.278 340.091H466.619L470.129 346.412L479.795 363.833L470.168 381.159L466.619 387.561H440.278ZM507.258 411.961H480.918L472.129 396.137L467.742 388.232L480.918 364.504H507.258L520.435 388.232L507.258 411.961ZM521.558 387.561L508.381 363.833L521.558 340.091H547.911L561.075 363.833L547.911 387.561H521.558ZM588.551 411.961H562.198L549.021 388.232L562.198 364.504H588.551L601.728 388.232L588.551 411.961ZM602.837 387.561L589.661 363.833L602.837 340.091H629.191L642.367 363.833L629.191 387.561H602.837ZM669.83 411.961H643.477L639.928 405.572L630.313 388.232L639.928 370.892L643.477 364.504H669.83L683.007 388.232L669.83 411.961ZM684.117 387.561L670.953 363.833L684.117 340.091H710.47L713.98 346.412L723.647 363.833L714.019 381.159L710.47 387.561H684.117ZM751.11 411.961H724.77L715.981 396.137L711.593 388.232L724.77 364.504H751.11L764.286 388.232L751.11 411.961ZM798.344 351.968L804.926 363.833L798.344 375.697L791.75 387.561H765.409L752.233 363.833L765.409 340.091H791.75L798.344 351.968ZM798.344 303.156L804.926 315.02L798.344 326.884L791.75 338.749H765.409L752.233 315.02L765.409 291.292H791.75L798.344 303.156ZM798.344 254.357L804.926 266.221L798.344 278.086L791.75 289.95H765.409L752.233 266.221L765.409 242.493H791.75L798.344 254.357ZM798.344 205.545L804.926 217.422L798.344 229.287L791.75 241.151H765.409L752.233 217.422L765.409 193.681H791.75L798.344 205.545ZM798.344 156.746L804.926 168.61L798.344 180.474L791.75 192.339H765.409L752.233 168.61L765.409 144.882H791.75L798.344 156.746ZM798.344 107.947L804.926 119.811L798.344 131.675L791.75 143.54H765.409L752.233 119.811L765.409 96.0827H791.75L798.344 107.947ZM798.344 59.1345L804.926 70.9988L798.344 82.8764L791.75 94.7406H765.409L752.233 70.9988L765.409 47.2703H791.75L798.344 59.1345ZM798.344 10.3356L804.926 22.1998L798.344 34.064L791.75 45.9282H765.409L752.233 22.1998L765.409 -1.52861H791.75L798.344 10.3356ZM798.344 -38.4633L804.926 -26.5991L798.344 -14.7349L791.75 -2.87071H765.409L752.233 -26.5991L765.409 -50.3276H791.75L798.344 -38.4633ZM798.344 -87.2757L804.926 -75.4115L798.344 -63.5473L791.75 -51.6697H765.409L752.233 -75.4115L765.409 -99.1399H791.75L798.344 -87.2757Z" fill="url(#paint2_radial_1264_3451)"/>
</g>
<defs>
<filter id="filter0_f_1264_3451" x="-31.2275" y="-276.527" width="933.688" height="1016.43" filterUnits="userSpaceOnUse" color-interpolation-filters="sRGB">
<feFlood flood-opacity="0" result="BackgroundImageFix"/>
<feBlend mode="normal" in="SourceGraphic" in2="BackgroundImageFix" result="shape"/>
<feGaussianBlur stdDeviation="145" result="effect1_foregroundBlur_1264_3451"/>
</filter>
<filter id="filter1_f_1264_3451" x="-555.973" y="-74.0266" width="933.688" height="1016.43" filterUnits="userSpaceOnUse" color-interpolation-filters="sRGB">
<feFlood flood-opacity="0" result="BackgroundImageFix"/>
<feBlend mode="normal" in="SourceGraphic" in2="BackgroundImageFix" result="shape"/>
<feGaussianBlur stdDeviation="145" result="effect1_foregroundBlur_1264_3451"/>
</filter>
<linearGradient id="paint0_linear_1264_3451" x1="191.655" y1="0" x2="191.655" y2="410.593" gradientUnits="userSpaceOnUse">
<stop offset="0.386801" stop-color="#CE69DE"/>
<stop offset="1" stop-color="#D469DE" stop-opacity="0"/>
</linearGradient>
<linearGradient id="paint1_linear_1264_3451" x1="191.655" y1="0" x2="191.655" y2="410.593" gradientUnits="userSpaceOnUse">
<stop offset="0.386801" stop-color="#CE69DE"/>
<stop offset="1" stop-color="#D469DE" stop-opacity="0"/>
</linearGradient>
<radialGradient id="paint2_radial_1264_3451" cx="0" cy="0" r="1" gradientTransform="matrix(-132.993 61.6337 -59.2666 -138.418 368.946 122.324)" gradientUnits="userSpaceOnUse">
<stop stop-color="white" stop-opacity="0.2"/>
<stop offset="1" stop-color="white" stop-opacity="0.01"/>
</radialGradient>
<clipPath id="clip0_1264_3451">
<rect width="389" height="400" rx="20" fill="white"/>
</clipPath>
</defs>
</svg>
